# xmcd
#
# Track frame offsets:
#	150
#	20436
#	41718
#	57793
#	78111
#	96329
#	112743
#	133088
#	149343
#	159454
#	180322
#	194941
#	227106
#
# Disc length: 3269 seconds
#
# Revision: 1
# Processed by: cddbd v1.5.2PL0 Copyright (c) Steve Scherf et al.
# Submitted via: EZCDAudioConverter 3.0.7.1
#
DISCID=ab0cc30d
DTITLE=Rory Block - Blues Wakkin' Like A Man (A Tribute To Son House)
DYEAR=2008
DGENRE=Blues
TTITLE0=My Black Mama
TTITLE1=Downhearted Blues
TTITLE2=Preachin' Blues
TTITLE3=Jinx Blues
TTITLE4=Dry Spell Blues
TTITLE5=Shetland Pony Blues
TTITLE6=Death Letter
TTITLE7=County Farm Blues
TTITLE8=Grinnin' in Your Face
TTITLE9=Low Down Dirty Dog Blues
TTITLE10=Depot Blues
TTITLE11=Government Fleet Blues
TTITLE12=I Want to Go Home on the Morning Train
EXTD=
EXTT0=
EXTT1=
EXTT2=
EXTT3=
EXTT4=
EXTT5=
EXTT6=
EXTT7=
EXTT8=
EXTT9=
EXTT10=
EXTT11=
EXTT12=
PLAYORDER=
